<?xml version="1.0" standalone="no"?>
<!DOCTYPE svg PUBLIC "-//W3C//DTD SVG 20010904//EN"
 "http://www.w3.org/TR/2001/REC-SVG-20010904/DTD/svg10.dtd">
<svg version="1.0" xmlns="http://www.w3.org/2000/svg"
 width="691.000000pt" height="478.000000pt" viewBox="0 0 691.000000 478.000000"
 preserveAspectRatio="xMidYMid meet">

<g transform="translate(0.000000,478.000000) scale(0.100000,-0.100000)"
fill="#000000" stroke="none">
<path d="M4556 4759 c-37 -4 -100 -13 -138 -19 -83 -14 2 55 -758 -620 -305
-271 -586 -518 -625 -548 -219 -176 -514 -355 -718 -436 -37 -15 -212 -60
-390 -101 -629 -146 -969 -253 -1237 -391 -245 -125 -459 -310 -572 -495 -62
-102 -103 -207 -101 -264 1 -97 89 -313 191 -470 73 -114 130 -173 247 -256
140 -99 255 -191 437 -351 131 -114 146 -131 157 -172 16 -63 92 -160 181
-229 161 -124 478 -254 813 -332 217 -50 342 -65 547 -65 496 0 1048 147 1800
480 374 166 1581 756 1683 823 484 316 781 848 823 1473 6 96 5 106 -31 230
-92 321 -253 697 -381 889 -102 154 -260 312 -438 441 -232 167 -723 364
-1021 409 -106 16 -350 18 -469 4z"/>
</g>
</svg>
